<?xml version="1.0" ?><!DOCTYPE svg  PUBLIC '-//W3C//DTD SVG 1.1//EN'  'http://www.w3.org/Graphics/SVG/1.1/DTD/svg11.dtd'><svg enable-background="new 0 0 512 512" height="512" id="Layer_1" overflow="visible" version="1.1" viewBox="0 0 512 512" width="512" xml:space="preserve" xmlns="http://www.w3.org/2000/svg" xmlns:xlink="http://www.w3.org/1999/xlink"><g><path d="M490.249,291.829c0,109.625-88.885,198.511-198.511,198.511   h-71.909c-109.633,0-198.512-88.886-198.512-198.511v-71.906c0-109.636,88.878-198.515,198.512-198.515h71.909   c109.626,0,198.511,88.879,198.511,198.515V291.829z" fill="#FFFFFF" stroke="#000000" stroke-width="18.5397"/><path d="M390.83,376.003c0,63.142-51.196,114.337-114.34,114.337h-41.417   c-63.146,0-114.336-51.195-114.336-114.337" fill="none" stroke="#000000" stroke-width="18.5397"/><circle cx="133.697" cy="226.382" r="12.618" stroke="#000000" stroke-width="18.5397"/><circle cx="366.567" cy="226.382" r="50.092" stroke="#000000" stroke-width="73.5971"/><line fill="none" stroke="#000000" stroke-width="18.5397" x1="120.315" x2="487.399" y1="49.339" y2="321.595"/><path d="M381.482,343.773c0-12.672-55.812-22.944-124.657-22.944   c-68.846,0-124.657,10.272-124.657,22.944H381.482z" stroke="#000000" stroke-width="18.5397"/></g></svg>